<svg xmlns="http://www.w3.org/2000/svg" width="88.804" height="90" viewBox="0 0 88.804 90">
  <g id="hacker" transform="translate(-3.402)" style="mix-blend-mode: screen;isolation: isolate">
    <path id="Path_100" data-name="Path 100" d="M201.561,175.391l2.887.629a1.331,1.331,0,0,0,.567-2.6l-2.887-.629a1.331,1.331,0,0,0-.567,2.6Z" transform="translate(-162.463 -142.392)" fill="#640d0f"/>
    <path id="Path_101" data-name="Path 101" d="M285.906,176.053a1.343,1.343,0,0,0,.285-.031l2.887-.629a1.331,1.331,0,0,0-.567-2.6l-2.887.629a1.331,1.331,0,0,0,.282,2.631Z" transform="translate(-231.749 -142.393)" fill="#640d0f"/>
    <path id="Path_102" data-name="Path 102" d="M87.668,78.431H86.579L83.856,63.975a23.4,23.4,0,0,0-5.923-12.069,14.815,14.815,0,0,0-8.1-4.491c.657-1.369,1.414-2.71,2.162-4.035,2-3.544,3.892-6.892,3.837-10.518a35.675,35.675,0,0,0-9.351-23.4C61.1,3.536,54.271,0,48.214,0,42.228,0,35.46,3.47,30.11,9.282a1.331,1.331,0,0,0,1.958,1.8C36.923,5.81,42.959,2.662,48.214,2.662c10.545,0,23.365,12.2,24.822,27.809a18.269,18.269,0,0,0-8.98-9.561,34.925,34.925,0,0,0-15.841-4.09A34.96,34.96,0,0,0,32.368,20.91a17.814,17.814,0,0,0-9,9.842A32.93,32.93,0,0,1,28.637,15.5a1.331,1.331,0,0,0-2.23-1.453A35.452,35.452,0,0,0,20.6,32.862c-.057,3.561,1.426,6.89,3,10.414.6,1.345,1.206,2.708,1.731,4.1C18.546,48.4,12.682,55.068,11,63.975L8.285,78.431H7.94A4.546,4.546,0,0,0,3.4,82.974v2.488A4.543,4.543,0,0,0,7.94,90H87.668a4.543,4.543,0,0,0,4.538-4.538V82.974a4.546,4.546,0,0,0-4.538-4.543ZM81.24,64.467l2.63,13.964H70.936l1.853-21.252a3.208,3.208,0,0,0-.86-2.461,3.522,3.522,0,0,0-2.585-1.14h-1.4a15.087,15.087,0,0,1,.821-3.62C74.571,50.521,79.732,56.446,81.24,64.467ZM64.06,36.962c.154-.451.288-.9.394-1.356a12.8,12.8,0,0,0,.341-2.932V24.4c4.212,2.8,6.648,7.2,7.256,13.129-.644,1.476-1.5,2.989-2.376,4.543-1.923,3.406-4.079,7.225-4.4,11.507H57.453V46.014a20.523,20.523,0,0,0,6.6-9.03c0-.007.005-.015.007-.022ZM51.109,46.613a10.8,10.8,0,0,1-3.075.693,10.816,10.816,0,0,1-3.08-.693,18.029,18.029,0,0,1-9.342-8.333,31.423,31.423,0,0,0,3.782.23,28.993,28.993,0,0,0,6.091-.629,7.288,7.288,0,0,0,2.728-1.388,7.265,7.265,0,0,0,2.727,1.388,29.2,29.2,0,0,0,9.635.405,18.64,18.64,0,0,1-9.465,8.327Zm3.682,1.212v5.753H41.272V47.813a17.323,17.323,0,0,0,2.778,1.3,13.28,13.28,0,0,0,3.918.852l.065,0,.065,0a13.271,13.271,0,0,0,3.914-.852,17.939,17.939,0,0,0,2.778-1.292Zm-20.672-24.8a31.969,31.969,0,0,1,14.1-3.539,31.8,31.8,0,0,1,13.92,3.457v3.278H34.118Zm0,5.858H62.134v3.795a10.109,10.109,0,0,1-.269,2.318q-.051.215-.111.43A26.791,26.791,0,0,1,51.5,35.278a3.778,3.778,0,0,1-1.96-1.252,1.342,1.342,0,0,0-.038-.136,1.356,1.356,0,0,0-2.608.129,3.779,3.779,0,0,1-1.966,1.259,28.156,28.156,0,0,1-10.455.142c-.038-.139-.074-.279-.107-.418a8.849,8.849,0,0,1-.245-2.01V28.879Zm-9.692,9.532c.476-6.324,2.837-10.983,7.03-13.886v8.468a11.518,11.518,0,0,0,.315,2.618c.106.451.238.9.39,1.349,0,.01.007.02.01.031a20.55,20.55,0,0,0,6.438,8.977v7.611H29.467c-.249-4.217-1.937-8.006-3.442-11.386-.573-1.287-1.133-2.545-1.6-3.781ZM13.619,64.467a20.866,20.866,0,0,1,5.29-10.709,12.158,12.158,0,0,1,7.258-3.8,18.68,18.68,0,0,1,.632,3.623h-.081a3.515,3.515,0,0,0-2.58,1.137,3.209,3.209,0,0,0-.86,2.461l1.745,21.255H10.993ZM89.544,85.462a1.878,1.878,0,0,1-1.876,1.876H7.94a1.879,1.879,0,0,1-1.876-1.876V82.974A1.881,1.881,0,0,1,7.94,81.093H44.957a1.331,1.331,0,0,0,0-2.662H27.694L25.931,56.955a.579.579,0,0,1,.167-.439.858.858,0,0,1,.62-.277H69.344a.878.878,0,0,1,.625.279.575.575,0,0,1,.167.432l-1.872,21.48h-17.4a1.331,1.331,0,1,0,0,2.662h36.8a1.881,1.881,0,0,1,1.876,1.881v2.488Z" transform="translate(0 0)" fill="#640d0f"/>
    <path id="Path_103" data-name="Path 103" d="M231.612,355.358c0-3.26-3.125-5.912-6.966-5.912s-6.966,2.652-6.966,5.912,3.125,5.907,6.966,5.907S231.612,358.615,231.612,355.358Zm-6.966,3.245c-2.333,0-4.3-1.486-4.3-3.245s1.971-3.25,4.3-3.25,4.3,1.488,4.3,3.25S226.98,358.6,224.646,358.6Z" transform="translate(-176.613 -288.02)" fill="#640d0f"/>
  </g>
</svg>
