<svg xmlns="http://www.w3.org/2000/svg" width="97.011" height="90" viewBox="0 0 97.011 90">
  <g id="identity" transform="translate(0 -18.533)">
    <path id="Path_104" data-name="Path 104" d="M1.421,73.149A1.419,1.419,0,0,0,2.84,71.73V64.352A26.232,26.232,0,0,1,6.387,51.174a26.537,26.537,0,0,1,9.328-9.427,1.419,1.419,0,1,0-1.453-2.437A29.381,29.381,0,0,0,3.934,49.747,29.073,29.073,0,0,0,0,64.352V71.73a1.419,1.419,0,0,0,1.419,1.419Z" transform="translate(-0.002 -16.684)" fill="#640d0f"/>
    <path id="Path_105" data-name="Path 105" d="M258.044,200.014a1.419,1.419,0,0,0-1.419,1.419v5.158a7.018,7.018,0,0,0,4.751,6.642l3.1,1.057a1.419,1.419,0,0,0,.917-2.686l-3.1-1.057a4.18,4.18,0,0,1-2.83-3.957v-5.158A1.419,1.419,0,0,0,258.044,200.014Z" transform="translate(-208.078 -147.149)" fill="#640d0f"/>
    <path id="Path_106" data-name="Path 106" d="M103.429,97.012a1.414,1.414,0,0,0,.858-.289,12.486,12.486,0,0,1,12.042-1.717,1.419,1.419,0,0,0,1.019-2.648,15.323,15.323,0,0,0-14.778,2.106,1.419,1.419,0,0,0,.859,2.548Z" transform="translate(-82.711 -59.031)" fill="#640d0f"/>
    <path id="Path_107" data-name="Path 107" d="M77.08,132.882a1.419,1.419,0,1,0-2.511-1.323A15.373,15.373,0,0,0,72.8,138.7v7.378a15.224,15.224,0,0,0,3.033,9.155,1.419,1.419,0,0,0,2.276-1.694,12.407,12.407,0,0,1-2.472-7.46V138.7A12.354,12.354,0,0,1,77.08,132.882Z" transform="translate(-59.031 -91.03)" fill="#640d0f"/>
    <path id="Path_108" data-name="Path 108" d="M197.632,155.626a1.419,1.419,0,0,0-1.582,1.234,23.755,23.755,0,0,1-40.024,14.221,28.8,28.8,0,0,0,4.4-1.768.312.312,0,0,1,.2-.032l3.943.817a1.419,1.419,0,0,0,.576-2.778l-3.943-.817a3.158,3.158,0,0,0-2.049.275,26.12,26.12,0,0,1-5.267,1.965,23.854,23.854,0,0,1-2.388-3.619A22.167,22.167,0,0,0,160.811,161a2.231,2.231,0,0,1,1.9-.376l8.71,2.193a1.419,1.419,0,0,0,.693-2.752l-8.71-2.193a5.054,5.054,0,0,0-4.309.866,19.331,19.331,0,0,1-8.82,3.715,23.541,23.541,0,0,1-1.135-3.934,15.378,15.378,0,0,0,13.622-15.262v-7.378a15.333,15.333,0,0,0-.4-3.463,23.593,23.593,0,0,1,3.764-1.4,19.819,19.819,0,0,1,.68,5.146v.048a1.419,1.419,0,0,0,2.838,0v-.048a22.654,22.654,0,0,0-.739-5.738,23.851,23.851,0,0,1,3.552-.265q.306,0,.61.008a26.346,26.346,0,0,1,.626,5.708v7.378a1.419,1.419,0,1,0,2.838,0v-7.378a29.165,29.165,0,0,0-.515-5.45,23.758,23.758,0,0,1,20.046,20.721,1.419,1.419,0,1,0,2.818-.33,26.6,26.6,0,1,0-.019,6.385,1.419,1.419,0,0,0-1.235-1.582Zm-37.705-19.745v7.378a12.54,12.54,0,0,1-11.164,12.449q-.065-.88-.066-1.776,0-1.171.113-2.314a8.468,8.468,0,0,0,7.069-8.358v-6.333a23.934,23.934,0,0,1,3.881-3.072A12.5,12.5,0,0,1,159.927,135.881Zm-10.62,12.686a23.666,23.666,0,0,1,3.734-8.318v3.01A5.634,5.634,0,0,1,149.307,148.567Z" transform="translate(-118.266 -88.213)" fill="#640d0f"/>
    <path id="Path_109" data-name="Path 109" d="M95.44,99.361l-14.4-14.4A33.02,33.02,0,0,0,54.2,32.682h-.085A29.126,29.126,0,0,0,20.311,19.9a1.419,1.419,0,1,0,.861,2.7A26.28,26.28,0,0,1,50.846,32.851a32.854,32.854,0,0,0-4.555.79,22.2,22.2,0,0,0-39.4,14.028V59.442A4.18,4.18,0,0,1,4.056,63.4l-3.1,1.057a1.419,1.419,0,1,0,.917,2.686l3.1-1.057a7.017,7.017,0,0,0,4.751-6.642V47.669a19.332,19.332,0,0,1,33.583-13.14A33.035,33.035,0,0,0,33.2,40.23a8.478,8.478,0,0,0-12.543,7.438v2.02a1.419,1.419,0,0,0,2.838,0v-2.02a5.644,5.644,0,0,1,7.409-5.356A33.109,33.109,0,0,0,23,54.842a1.419,1.419,0,0,0-2.269,1.31,8.489,8.489,0,0,0,1.061,3.123,33.14,33.14,0,0,0,.2,13.815,19.332,19.332,0,0,1-4.35-2.413,5.827,5.827,0,0,0-4.755-1L3.348,71.847a1.419,1.419,0,1,0,.631,2.767l9.537-2.173a2.992,2.992,0,0,1,2.441.52,22.1,22.1,0,0,0,6.983,3.456A32.85,32.85,0,0,0,24.914,81a25.944,25.944,0,0,1-7.492-2.414,3.145,3.145,0,0,0-2.2-.237l-5.5,1.438a1.419,1.419,0,1,0,.718,2.745l5.5-1.438a.312.312,0,0,1,.217.03,28.8,28.8,0,0,0,10.592,2.955,33.256,33.256,0,0,0,3.283,4.138c-.3.008-.6.013-.894.013A32.977,32.977,0,0,1,17.7,86.2a1.419,1.419,0,0,0-.981,2.663,35.808,35.808,0,0,0,12.413,2.207,36.375,36.375,0,0,0,3.675-.19,33.193,33.193,0,0,0,4.708,3.348,40.291,40.291,0,0,1-18.354-.369,1.419,1.419,0,0,0-1.99,1.538l0,.024a1.419,1.419,0,0,0,1.035,1.123,42.921,42.921,0,0,0,21.843,0,1.418,1.418,0,0,0,.822-.592,32.98,32.98,0,0,0,32.558-3.39l1.892,1.892a1.419,1.419,0,0,0,2.006-2.006l-1.652-1.652a33.328,33.328,0,0,0,3.587-3.587l14.162,14.162a2.536,2.536,0,0,1-3.587,3.587L81.611,96.72A1.419,1.419,0,0,0,79.6,98.727l8.235,8.235a5.374,5.374,0,0,0,7.6-7.6ZM54.2,95.918a30.2,30.2,0,1,1,30.2-30.2,30.233,30.233,0,0,1-30.2,30.2Z" transform="translate(0)" fill="#640d0f"/>
  </g>
</svg>
