<svg id="Group_29" data-name="Group 29" xmlns="http://www.w3.org/2000/svg" xmlns:xlink="http://www.w3.org/1999/xlink" width="710.606" height="916.222" viewBox="0 0 710.606 916.222">
  <defs>
    <linearGradient id="linear-gradient" x1="0.5" y1="-0.33" x2="0.5" y2="0.705" gradientUnits="objectBoundingBox">
      <stop offset="0" stop-color="#043d8e"/>
      <stop offset="1"/>
    </linearGradient>
    <linearGradient id="linear-gradient-2" x1="0.505" y1="1.204" x2="0.499" y2="-0.261" xlink:href="#linear-gradient"/>
  </defs>
  <path id="Path_3" data-name="Path 3" d="M700.938,999.606,512.505,975.921,461.689,816.388h43.094l-8.877-29.738c-24.062-1.12-43.67-3.965-58.4-8.483-22.682-6.959-37.743-17.524-44.763-31.4a40.515,40.515,0,0,1-2.345-30.77c1.672-14.317,9.655-29.374,24.353-45.954,9.384-10.586,21.587-21.81,36.358-33.446l-28.982-97.088L693.953,316.238V147.156a31.554,31.554,0,0,1,63.107,0V264.406l3.525-2.894,21.242,17.45,317.208,260.545-51.9,173.866a164.9,164.9,0,0,1,11.318,37.839,144.523,144.523,0,0,1-1.592,57.772,40.314,40.314,0,0,1-.081,7.4h1.53L1007.49,975.921,820.58,999.415l-39.89,21.549-20.11,10.859Z" transform="translate(-388.429 -115.6)" fill="#1b75bc"/>
  <g id="Group_1" data-name="Group 1" transform="translate(50.673 165.038)">
    <path id="Path_4" data-name="Path 4" d="M1168.527,826.3l-105.593,353.714L860.129,1289.571l-13.084,7.065-13.081-7.065L631.156,1180.018,525.567,826.3l309.617-254.31,11.865-9.744,11.861,9.744Z" transform="translate(-525.567 -562.25)"/>
    <path id="Path_5" data-name="Path 5" d="M672.528,1202.56,571.5,864.126,876.008,614.013l304.507,250.113L1079.484,1202.56,882.065,1309.2l-6.058,3.271Z" transform="translate(-554.528 -594.887)" fill="url(#linear-gradient)"/>
    <path id="Path_6" data-name="Path 6" d="M611.264,884.141h571.451L901.079,649.031Z" transform="translate(-579.599 -616.966)" fill="#1b75bc" opacity="0.18"/>
  </g>
  <path id="Path_7" data-name="Path 7" d="M874.943,1511.722s5.614,93.656,64.4,156.235h319.2V1488.9l-194.684-23.1-176.536-36.3Z" transform="translate(-695.175 -944.016)"/>
  <path id="Path_8" data-name="Path 8" d="M1806.556,1429.509s77.444,10.865,70.376,96.96c0,0,35.264,49.324,19.695,109.991l-101.376-40.9-51.132-109.4Z" transform="translate(-1243.188 -944.016)"/>
  <path id="Path_9" data-name="Path 9" d="M621.14,1337.216s-39.547-5.149-61.716,33.961c0,0-122.334,67.289-126.285,117.957l123.089,4.132,104.554-72.251Z" transform="translate(-416.619 -885.685)"/>
  <path id="Path_10" data-name="Path 10" d="M920.821,1337.6l6.6,20.348-18.973,13.613,26.4,36.3L1089.52,1505.2l183.547-74.244,6.6-59.394-33.086-16.5Z" transform="translate(-716.299 -886.067)"/>
  <path id="Path_11" data-name="Path 11" d="M1005.456,1137.242l-63.521,54.308,168.7,137.077,124.152-57.745s-65.17,9.074-58.571,7.424,102.292-52.794,102.292-52.794l-21.448,27.936,43.721-27.936-90.83-113.437-92.52-6.115Z" transform="translate(-737.413 -740.019)"/>
  <path id="Path_12" data-name="Path 12" d="M1029.385,1188.323l-49.5,48.143,154.676,108.96,157.061-101.742-59.615-70.52Z" transform="translate(-761.343 -782.392)" fill="#1b75bc"/>
  <path id="Path_13" data-name="Path 13" d="M1545.822,1214.52l17.614,19.4-70.154,47.159,77.125-29.7-23.119,36.371,68.031-44.069-59.615-70.52Z" transform="translate(-1085.036 -782.392)" fill="#085182"/>
  <path id="Path_14" data-name="Path 14" d="M1171.83,1280.576l-57.986-42.209s29.7-51.355,81.667-57.369,112.191,23.409,128.69,57.369l-65.915,44.684Z" transform="translate(-845.801 -786.836)"/>
  <path id="Path_15" data-name="Path 15" d="M1345.625,1286.887c-16.69,32.494-12.341,61.419-12.341,61.419l-43.8,25.573-42.655-28.049c9.315-18.146-14.034-59.678-14.034-59.678l7.253-.155,107.27-2.287Q1346.436,1285.305,1345.625,1286.887Z" transform="translate(-920.799 -852.09)" fill="#1b75bb"/>
  <path id="Path_16" data-name="Path 16" d="M1340.224,1372.245l-23.2,15.227-31.09-17.016s-1.582-24.158-11.259-44.418l33.477,23.84-14.448-2.11,23.319,16.5,22.721-3.4-22.721,9.278-23.319-13.52v8.573l23.319,13.764Z" transform="translate(-947.204 -878.779)" fill="#064672"/>
  <g id="Group_2" data-name="Group 2" transform="translate(260.617 222.605)">
    <path id="Path_17" data-name="Path 17" d="M1569.151,1086.25c-.205,2.257,13,22.892,13,22.892l-13,42.691-38.377,9.822Z" transform="translate(-1369.29 -950.197)"/>
    <path id="Path_18" data-name="Path 18" d="M1176.118,1122.607s12.461,53.827,77.631,79.194c0,0,35.65-9.374,57.834-42.737L1270.66,1115.8l-91.182-29.783Z" transform="translate(-1145.682 -950.051)"/>
    <path id="Path_19" data-name="Path 19" d="M1331.314,915.447c-14.024-57.745-76.719-55.271-76.719-55.271s-62.695-2.475-76.719,55.271c0,0-10.724,101.467,76.719,138.589C1342.038,1016.915,1331.314,915.447,1331.314,915.447Z" transform="translate(-1146.529 -807.649)" fill="#e5675a"/>
    <path id="Path_20" data-name="Path 20" d="M1195.837,1034.453l-5.591-22.614s13.006,12.374,34.779,16.7c0,0-13.9-20.417-11.529-39.6,0,0,28.136,43.394,81.452,61.6l5.677-20.15-63.313-109.51-36.307-27.237-30.93,51.968-4.328,37.758S1175.812,1019.945,1195.837,1034.453Z" transform="translate(-1139.144 -828.765)" opacity="0.22"/>
    <path id="Path_21" data-name="Path 21" d="M1261.167,782.933s-.809,127.467,123.34,148.5l-10.728-25.367,30.316,25.367s19.8-30.316,0-95.28c0,0,11.755,13.612,16.7,46.4,0,0,19.36-77.447-36.293-121.884-28.67-22.892-71.979-12.368-71.979-12.368s36.5-33.416,78.575-16.711C1391.1,731.595,1289,678.358,1261.167,782.933Z" transform="translate(-1199.305 -718.045)"/>
    <path id="Path_22" data-name="Path 22" d="M1161.431,852.106s-39.031,47.52-22.326,123.62c0,0-35.266-36.5-25.986-89.711s30.935-60.633,30.935-60.633-32.172,4.331-42.072,51.352c0,0-5.353-73.372,71.258-66.384Z" transform="translate(-1098.89 -775.947)"/>
    <path id="Path_23" data-name="Path 23" d="M1217.452,895.509s-19.391,52.666-9.908,98.992c0,0-25.6-1.815-30.93-59.412s34.032-58.141,34.032-58.141Z" transform="translate(-1145.682 -818.233)"/>
    <path id="Path_24" data-name="Path 24" d="M1326.172,1335.706s19.3-21.756,46.521,0l-24.336,12.063S1335.953,1351.69,1326.172,1335.706Z" transform="translate(-1240.291 -1101.382)"/>
    <path id="Path_25" data-name="Path 25" d="M1373.934,1366.674l5.612,2.887,20.167-12.168-14.436-1.374Z" transform="translate(-1270.405 -1120.286)"/>
    <path id="Path_26" data-name="Path 26" d="M1129.822,840.473s-23.668,19.814-27.919,64.979c0,0,19.906-42.193,35.67-43.37s23.179-21.609,23.179-21.609l3.1-8.646S1138.48,821.278,1129.822,840.473Z" transform="translate(-1098.89 -787.961)"/>
    <path id="Path_27" data-name="Path 27" d="M1334.864,1288.953l18.974-3.867,21.242,3.867-21.242-.859Z" transform="translate(-1245.772 -1075.563)" fill="#932f25"/>
    <path id="Path_28" data-name="Path 28" d="M1339.7,1300.389h21.036s10.448,3.025,13.336,12.924l11.286-5.768-18.375,16.355s-31.782-11.066-40.807-4.364c0,0,6.512-12.272,18.611-14.059C1344.783,1305.476,1346.3,1302.659,1339.7,1300.389Z" transform="translate(-1240.291 -1085.211)" opacity="0.22"/>
    <path id="Path_29" data-name="Path 29" d="M1258.109,974.738s-5.775,14.437-3.3,38.772c0,0-16.086-7.012-14.024-32.585s10.518-35.885,10.518-35.885l9.388,14.436v19.18Z" transform="translate(-1186.34 -861.165)"/>
    <path id="Path_30" data-name="Path 30" d="M1257.778,1010.338s2.27,25.573,33.2,48.671c0,0-14.262-27.223-12.287-46.2s-24.02-30.935-24.02-30.935-4.529,8.517-3.7,9.208S1257.778,1010.338,1257.778,1010.338Z" transform="translate(-1192.815 -884.391)"/>
    <path id="Path_31" data-name="Path 31" d="M1441.655,1340.76c.55-.137,6.737-3.162,6.737-3.162l-4.125,5.087Z" transform="translate(-1313.103 -1108.672)"/>
    <path id="Path_32" data-name="Path 32" d="M1502.992,1270.249a92.119,92.119,0,0,1-7.012,11.137s9.506-4.125,12.178-11.137Z" transform="translate(-1347.355 -1066.208)"/>
    <path id="Path_33" data-name="Path 33" d="M1188.934,1124.493s6.268,24.311,11.493,35.86c0,0-11.274-19.523-13.062-29.148S1188.934,1124.493,1188.934,1124.493Z" transform="translate(-1152.443 -974.049)"/>
    <path id="Path_34" data-name="Path 34" d="M1305.3,1324.632s-12.511-6.813-17.323-13.825A55.655,55.655,0,0,0,1303,1327.513Z" transform="translate(-1216.212 -1091.78)"/>
    <path id="Path_35" data-name="Path 35" d="M1441.1,917.1c25.163,35.062,15.674,91.57,15.674,91.57-9.278-29.287-46.882-58.984-46.882-58.984l12.175,30.935-23.039-24.335,6.341,27.823,4.523,19.853c-35.058-24.72-50.223-57.879-50.456-58.392,13.509,18,36.754,35.055,37.117,35.321-8.661-14.159-12.371-43.165-12.371-43.165l20.393,13.609-14-23.922c23.718,9.485,53,35.058,53,35.058-1.833-24.446-14.436-58.673-14.436-58.673,11.961-3.821,29.287,7.117,29.287,7.117-1.238-7.423-11.961-23.925-11.961-23.925,23.515,17.326,20.208,41.248,20.208,41.248C1454.708,916.277,1441.1,917.1,1441.1,917.1Z" transform="translate(-1261.261 -824.564)" fill="#1b75bc"/>
    <path id="Path_36" data-name="Path 36" d="M1196.385,949.276s-10.227,10.9-14.308,32.763c0,0-9.967-8.662-9.911-27.223,0,0-12.318,5.774-17.68,27.223,0,0-7.917-28.46,10.478-54.858,0,0-6.732,20.475-7.385,33.822,0,0,8.731-12.929,21.38-16.086,0,0-4.441,13.8,0,22.479C1178.958,967.4,1183.014,954.46,1196.385,949.276Z" transform="translate(-1130.975 -849.904)" fill="#ff0b6f"/>
    <path id="Path_37" data-name="Path 37" d="M1441.792,742.95s-27.269-6.187-39.929,7.424c0,0,33.742-8.259,49.828,20,0,0-36.228-15.266-53.071,0s-57.058,0-57.058,0S1379.922,717.583,1441.792,742.95Z" transform="translate(-1249.995 -729.4)"/>
    <path id="Path_38" data-name="Path 38" d="M1106.747,1086.25c.205,2.257-13,22.892-13,22.892l13,42.691,38.377,9.822Z" transform="translate(-1093.749 -950.197)"/>
    <path id="Path_39" data-name="Path 39" d="M1146.634,1162.4l-18.4-2.889-1.811-4.822v0l-12.582-33.532,3.71-6.189s6.093,18.952,10.675,25.562c-.262-.584-9.371-20.685-7.97-34.571a200.548,200.548,0,0,0,13.309,36.488C1137.211,1149.812,1141.579,1156.954,1146.634,1162.4Z" transform="translate(-1106.419 -962.624)" fill="#1b75bb"/>
  </g>
  <path id="Path_40" data-name="Path 40" d="M1333.284,1352.208l-43.8,25.573-42.655-28.049c9.315-18.146-14.034-59.678-14.034-59.678l7.253-.155a55.192,55.192,0,0,1,6.78,10.483q.748,1.419,1.441,2.871c9.677,20.26,11.259,44.418,11.259,44.418l31.09,17.016,23.2-15.227,6.5-4.264v-17.322l-23.427,6.806,23.427-22.067,25.311-21.823C1328.935,1323.284,1333.284,1352.208,1333.284,1352.208Z" transform="translate(-920.799 -855.993)"/>
  <path id="Path_41" data-name="Path 41" d="M1326.173,1408.819l23.319,13.52,22.721-9.278-4.779,7.423-17.942,6.187-23.32-12.065Z" transform="translate(-979.673 -930.971)" fill="#2d99e2"/>
  <path id="Path_42" data-name="Path 42" d="M1326.174,1384.849l23.319,16.5,22.721-3.4-21.793-.929-17.089-11.124Z" transform="translate(-979.675 -915.858)" fill="#2d99e2"/>
  <path id="Path_43" data-name="Path 43" d="M1125.184,1140.541l1.241,14.148-12.582-33.532,3.71-6.189s6.093,18.952,10.675,25.562c-.262-.584-9.371-20.685-7.97-34.571a200.548,200.548,0,0,0,13.309,36.488l3.784,12.245Z" transform="translate(-845.801 -740.019)" fill="#2d99e2"/>
  <path id="Path_44" data-name="Path 44" d="M1113.844,1121.157l6.654,17.735-4.181-17.735,11.911,19.373s-7.948-22.751-7.97-34.571Z" transform="translate(-845.801 -740.019)" fill="#fff"/>
  <path id="Path_45" data-name="Path 45" d="M974.4,1405.724l148.9,100.266v19.062l-86-60.7,86,72.25-143.952-90.743-17.324-26.4,28.873,18.253Z" transform="translate(-750.082 -929.02)" fill="#1b75bc"/>
  <path id="Path_46" data-name="Path 46" d="M1029.385,1214.191l-49.5,48.143,154.676,108.96-125.6-104.7,121.06,63.451-100.641-70.258,24.541-22.438-18.966-4.854Z" transform="translate(-761.343 -808.259)" fill="#085182"/>
  <path id="Path_47" data-name="Path 47" d="M1232.8,1469.691l57.823,53.208,76-49.909-53.279,23.3,35.54-21.582-59.668,25.5Z" transform="translate(-920.8 -969.351)" fill="#fff"/>
  <path id="Path_48" data-name="Path 48" d="M962.028,1419.46l17.324,26.4,47.113,29.7-36.8-30.522,15.468,5.774L974.4,1405.724l16.5,31.99Z" transform="translate(-750.082 -929.02)" fill="#fff"/>
  <path id="Path_49" data-name="Path 49" d="M1140.773,1512.112l90.522,60.956v19.062l-86-60.7,86,72.25-82.168-51.8,17.548,6.013-33.366-34.854,52.235,29.7Z" transform="translate(-858.074 -996.097)" fill="#085182"/>
  <path id="Path_50" data-name="Path 50" d="M1108.366,1056.668l-14.618,33.822,17.324-22.892Z" transform="translate(-833.131 -708.941)"/>
  <path id="Path_51" data-name="Path 51" d="M1650.086,1198.855l36.344,35.068-18.172-29.148,37.352,35.955-51.042-67.566Z" transform="translate(-1183.901 -782.392)"/>
  <path id="Path_52" data-name="Path 52" d="M1096.192,1263.738,1077,1284.294l32.791-17.531" transform="translate(-822.574 -839.498)"/>
  <path id="Path_53" data-name="Path 53" d="M985.94,1301.942l36.02-31.693-42.072,27.429Z" transform="translate(-761.343 -843.603)"/>
  <path id="Path_54" data-name="Path 54" d="M1376.351,1543.442l143.123-78.318L1376.351,1562.5l-12.977-17.969Z" transform="translate(-1003.13 -966.472)" fill="#085182"/>
  <path id="Path_55" data-name="Path 55" d="M1249.237,1235.821s6.6,20.337,25.3,33.336a17.922,17.922,0,0,1,6.341-5.628S1263.934,1255.034,1249.237,1235.821Z" transform="translate(-931.166 -821.897)" fill="#ff7c76"/>
  <path id="Path_56" data-name="Path 56" d="M1371.54,1250.395l-8.166-4.259,1.479-10.315,6.687,7.287Z" transform="translate(-1003.13 -821.897)" fill="#ff7c76"/>
  <path id="Path_57" data-name="Path 57" d="M1249.237,1235.821s10.052,21.6,27.368,30.872l-2.07,2.464S1263.385,1265.771,1249.237,1235.821Z" transform="translate(-931.166 -821.897)" fill="#fff"/>
  <path id="Path_58" data-name="Path 58" d="M1363.374,1246.136l8.166,4.259-5.931-5.087-.756-9.487Z" transform="translate(-1003.13 -821.897)" fill="#ff0b6f"/>
  <path id="Path_59" data-name="Path 59" d="M462.081,1640.329s16.589-39.131,212.008,15.091l10.4,59.27s-152.222,22.074-217.412,2.075S432.589,1652.735,462.081,1640.329Z" transform="translate(-413.658 -1068.328)"/>
  <path id="Path_60" data-name="Path 60" d="M708.481,1717.15s-7.626,1.2-19.942,2.771q-2.971.383-6.3.787c-3.5.425-7.268.868-11.266,1.312-6.274.7-13.1,1.408-20.3,2.069-41.007,3.758-93.95,6.034-124.249-2.812-54.454-15.9-42.655-33.34-42.655-33.34l130.1,4.467,2.476-9.9-131.99-6.115s-3.2-4.031,5.406-11.074c5.188-4.253,14.666-9.6,31.714-15.811,18.231-6.644,50.337-3.6,82.218,2.413,9.7,1.833,19.38,3.939,28.644,6.13q5.537,1.314,10.845,2.649,5.67,1.43,10.985,2.845c25.425,6.751,43.845,12.848,43.845,12.848l1.751,6.814Z" transform="translate(-447.863 -1080.357)" fill="#085182"/>
  <path id="Path_61" data-name="Path 61" d="M711.825,1683.2c-86.818-23.153-183.465-19.469-210-17.888,5.188-4.253,14.666-9.6,31.714-15.811,45.345-16.528,176.537,26.885,176.537,26.885Z" transform="translate(-459.923 -1080.357)" fill="#1b75bc"/>
  <path id="Path_62" data-name="Path 62" d="M877.445,1732.542c-6.274.7-13.1,1.408-20.3,2.069l-46.982-72.171c9.7,1.833,19.38,3.939,28.644,6.13Z" transform="translate(-654.331 -1090.879)" fill="#fff"/>
  <path id="Path_63" data-name="Path 63" d="M962.388,1745.424q-2.971.382-6.3.787l-39.06-60.011q5.67,1.43,10.985,2.845Z" transform="translate(-721.712 -1105.859)" fill="#fff"/>
  <path id="Path_64" data-name="Path 64" d="M554.168,1665.058s26.81-11.73,53.208-8.779l-4.537-3.236S578.916,1649.365,554.168,1665.058Z" transform="translate(-492.927 -1084.717)" fill="#fff"/>
  <path id="Path_65" data-name="Path 65" d="M703.749,1652.667l5.775,3.611,24.614,1.507A97.4,97.4,0,0,0,703.749,1652.667Z" transform="translate(-587.238 -1084.716)" fill="#fff"/>
  <g id="Group_3" data-name="Group 3" transform="translate(320.304 14.78)">
    <path id="Path_66" data-name="Path 66" d="M1288.829,172.375V676.92h-33.547V172.375a16.774,16.774,0,0,1,33.547,0Z" transform="translate(-1255.282 -155.6)" fill="#ff0b6f"/>
    <path id="Path_67" data-name="Path 67" d="M1275.281,687.138V178.5a9.5,9.5,0,0,1,9.382-9.6,9.205,9.205,0,0,1,6.632,2.81,9.655,9.655,0,0,1,2.753,6.792V687.138Z" transform="translate(-1267.891 -163.986)" fill="#ff5aa5"/>
    <path id="Path_68" data-name="Path 68" d="M1285.281,692.748V187.807a5.807,5.807,0,0,1,5.687-5.907,5.539,5.539,0,0,1,3.988,1.7,5.984,5.984,0,0,1,1.7,4.21V692.748Z" transform="translate(-1274.196 -172.182)" fill="#ffc5e2"/>
  </g>
  <path id="Path_69" data-name="Path 69" d="M1288.829,1566.47v149.66a16.774,16.774,0,1,1-33.547,0V1566.47Z" transform="translate(-934.978 -1030.37)"/>
  <path id="Path_70" data-name="Path 70" d="M1288.829,1696.751v149.66a16.774,16.774,0,1,1-33.547,0v-149.66Z" transform="translate(-934.978 -1112.512)"/>
  <g id="Group_4" data-name="Group 4" transform="translate(260.431 561.798)">
    <path id="Path_71" data-name="Path 71" d="M1093.243,1661.311l54.478-25.293,7.57,69.634s-23.966,16.659-51.653,14.929Z" transform="translate(-1093.243 -1636.017)"/>
    <path id="Path_72" data-name="Path 72" d="M1152.768,1720.759s-6.7,9.485-13.664-5.361c0,0,1.186,8.247-4.948,10.723s-11.447-25.089-11.447-25.089l-4.641,27.975h-6.548l-2.062-9.378-7.556-34.342,0,0c.388-.244,25.307-15.863,45.087-18.763a.065.065,0,0,0,0,.018l5.144,48.324Z" transform="translate(-1098.703 -1655.249)" fill="#085182"/>
    <path id="Path_73" data-name="Path 73" d="M1152.14,1714.862c-2.89,6.562-10.923-11.067-10.923-11.067s-3.3,7.065-7.061,8.787-9.578-23.1-9.578-23.1l-15.12,30.144-.362.717-7.194-35.058,0,0c.388-.244,25.307-15.863,45.087-18.763a.065.065,0,0,0,0,.018Z" transform="translate(-1098.703 -1655.249)" fill="#1b75bc"/>
    <path id="Path_74" data-name="Path 74" d="M1153.627,1676.254s-23.645,3.9-36.483,15.032c0,0,20.962-10.033,36.572-9.762Z" transform="translate(-1108.313 -1661.386)" fill="#ff0b6f"/>
  </g>
  <g id="Group_14" data-name="Group 14" transform="translate(314.908 559.118)">
    <path id="Path_75" data-name="Path 75" d="M1311.083,1659.385s-7.838,5.248.257,13.841c0,0-6.574,10.921-.786,18.573,0,0-8.92,8.486-5.124,16.731,0,0-31.3-3.077-30.767-5.459s0-43.526,0-43.526Z" transform="translate(-1262.101 -1648.071)"/>
    <g id="Group_13" data-name="Group 13" transform="translate(0)">
      <g id="Group_6" data-name="Group 6">
        <g id="Group_5" data-name="Group 5">
          <path id="Path_76" data-name="Path 76" d="M1240.679,1631.445s40.163-7.978,49.238,3.6-47.222,14.946-47.222,14.946Z" transform="translate(-1240.679 -1628.765)"/>
          <path id="Path_77" data-name="Path 77" d="M1287.785,1647.064c-5.361,2.616-34.851,5.1-34.851,5.1l-1.6-12.035v-.008l-.048-.351a.471.471,0,0,1-.007-.07c10.93-3.714,34.441,0,34.441,0C1283.322,1643.292,1287.785,1647.064,1287.785,1647.064Z" transform="translate(-1247.364 -1634.621)" fill="#1b75bc"/>
          <path id="Path_78" data-name="Path 78" d="M1287.88,1649.88c-5.361,2.616-34.852,5.1-34.852,5.1l-1.6-12.035c.251,1.456,1.6,6.137,8.587,5.964,8.269-.207,21.468-1.648,21.468-1.648s-.617-4.744,4.331-4.744C1283.416,1646.108,1287.88,1649.88,1287.88,1649.88Z" transform="translate(-1247.459 -1637.437)" fill="#085182"/>
          <path id="Path_79" data-name="Path 79" d="M1261.167,1642.645h24.189s-5.225-1.951-19.592-1.814Z" transform="translate(-1253.597 -1636.368)" fill="#ff0b6f"/>
        </g>
        <path id="Path_80" data-name="Path 80" d="M1352.04,1642.94s-1.306,3.862.963,5.948,6.187-1.008,5.843-2.658S1357.814,1641.987,1352.04,1642.94Z" transform="translate(-1310.656 -1637.573)" fill="#085182"/>
      </g>
      <g id="Group_8" data-name="Group 8" transform="translate(0 18.878)">
        <g id="Group_7" data-name="Group 7">
          <path id="Path_81" data-name="Path 81" d="M1240.679,1682.536s40.163-7.978,49.238,3.6-47.222,14.945-47.222,14.945Z" transform="translate(-1240.679 -1679.856)"/>
          <path id="Path_82" data-name="Path 82" d="M1287.785,1698.155c-5.361,2.616-34.851,5.1-34.851,5.1l-1.6-12.035v-.007l-.048-.351a.473.473,0,0,1-.007-.07c10.93-3.713,34.441,0,34.441,0C1283.322,1694.383,1287.785,1698.155,1287.785,1698.155Z" transform="translate(-1247.364 -1685.712)" fill="#1b75bc"/>
          <path id="Path_83" data-name="Path 83" d="M1287.88,1700.971c-5.361,2.616-34.852,5.1-34.852,5.1l-1.6-12.035c.251,1.456,1.6,6.137,8.587,5.964,8.269-.207,21.468-1.648,21.468-1.648s-.617-4.744,4.331-4.744C1283.416,1697.2,1287.88,1700.971,1287.88,1700.971Z" transform="translate(-1247.459 -1688.529)" fill="#085182"/>
          <path id="Path_84" data-name="Path 84" d="M1261.167,1693.737h24.189s-5.225-1.951-19.592-1.814Z" transform="translate(-1253.597 -1687.46)" fill="#fff"/>
        </g>
        <path id="Path_85" data-name="Path 85" d="M1352.04,1694.031s-1.306,3.862.963,5.947,6.187-1.008,5.843-2.657S1357.814,1693.078,1352.04,1694.031Z" transform="translate(-1310.656 -1688.664)" fill="#085182"/>
      </g>
      <g id="Group_10" data-name="Group 10" transform="translate(1.956 37.917)">
        <g id="Group_9" data-name="Group 9">
          <path id="Path_86" data-name="Path 86" d="M1245.973,1734.062s40.163-7.978,49.238,3.6-47.223,14.946-47.223,14.946Z" transform="translate(-1245.973 -1731.382)"/>
          <path id="Path_87" data-name="Path 87" d="M1293.079,1749.682c-5.361,2.616-34.851,5.1-34.851,5.1l-1.6-12.035v-.007l-.048-.351a.465.465,0,0,1-.007-.07c10.93-3.714,34.441,0,34.441,0C1288.616,1745.909,1293.079,1749.682,1293.079,1749.682Z" transform="translate(-1252.658 -1737.239)" fill="#1b75bc"/>
          <path id="Path_88" data-name="Path 88" d="M1293.174,1752.5c-5.361,2.616-34.851,5.1-34.851,5.1l-1.6-12.035c.251,1.455,1.6,6.137,8.587,5.964,8.269-.207,21.468-1.648,21.468-1.648s-.617-4.744,4.331-4.744C1288.71,1748.725,1293.174,1752.5,1293.174,1752.5Z" transform="translate(-1252.753 -1740.055)" fill="#085182"/>
          <path id="Path_89" data-name="Path 89" d="M1266.461,1745.263h24.189s-5.225-1.951-19.592-1.814Z" transform="translate(-1258.891 -1738.986)" fill="#fff"/>
        </g>
        <path id="Path_90" data-name="Path 90" d="M1357.334,1745.557s-1.306,3.862.963,5.948,6.187-1.008,5.843-2.658S1363.108,1744.6,1357.334,1745.557Z" transform="translate(-1315.95 -1740.191)" fill="#085182"/>
      </g>
      <g id="Group_12" data-name="Group 12" transform="translate(4.135 55.463)">
        <g id="Group_11" data-name="Group 11">
          <path id="Path_91" data-name="Path 91" d="M1251.869,1781s31.97-6.35,39.193,2.863-37.589,11.9-37.589,11.9Z" transform="translate(-1251.869 -1778.867)"/>
          <path id="Path_92" data-name="Path 92" d="M1289.365,1793.434c-4.268,2.082-27.742,4.062-27.742,4.062l-1.27-9.579v-.006l-.038-.279a.375.375,0,0,1-.006-.056c8.7-2.956,27.415,0,27.415,0C1285.812,1790.431,1289.365,1793.434,1289.365,1793.434Z" transform="translate(-1257.19 -1783.529)" fill="#1b75bc"/>
          <path id="Path_93" data-name="Path 93" d="M1289.441,1795.676c-4.268,2.082-27.742,4.062-27.742,4.062l-1.27-9.579c.2,1.159,1.276,4.885,6.835,4.747,6.583-.165,17.089-1.312,17.089-1.312a3.243,3.243,0,0,1,3.447-3.776C1285.888,1792.673,1289.441,1795.676,1289.441,1795.676Z" transform="translate(-1257.266 -1785.771)" fill="#085182"/>
          <path id="Path_94" data-name="Path 94" d="M1268.177,1789.916h19.255s-4.159-1.553-15.6-1.444Z" transform="translate(-1262.151 -1784.92)" fill="#fff"/>
        </g>
        <path id="Path_95" data-name="Path 95" d="M1340.512,1790.15s-1.04,3.074.766,4.734,4.925-.8,4.651-2.115S1345.108,1789.392,1340.512,1790.15Z" transform="translate(-1307.57 -1785.878)" fill="#085182"/>
      </g>
    </g>
  </g>
  <path id="Path_96" data-name="Path 96" d="M1137.07,1332.264s-50.834-33.018-46.453-32.952,24.541-22.438,24.541-22.438l-38.153,22.214,47.378,33.176-15.5-15.066Z" transform="translate(-822.574 -847.78)" fill="#ff0b6f"/>
  <path id="Path_97" data-name="Path 97" d="M1364.432,1452.76l70.9-43.941-71.169,49.1-12.492-14.067Z" transform="translate(-995.747 -930.971)" fill="#ff0b6f"/>
  <path id="Path_98" data-name="Path 98" d="M1179.191,1185.284s4.435,17.794,24.843,37.547v8.585A147.554,147.554,0,0,1,1179.191,1185.284Z" transform="translate(-887.003 -790.033)" fill="#ff0b6f"/>
  <path id="Path_99" data-name="Path 99" d="M1355.727,1346.463v10.3l12.34,6.771,17.331-6.771-16.224,3.882,11.549-8.183S1358.641,1357.648,1355.727,1346.463Z" transform="translate(-998.308 -891.656)" fill="#ff0b6f"/>
  <path id="Path_100" data-name="Path 100" d="M1409.888,1090.537c-35.058-24.72-50.223-57.879-50.456-58.393,13.509,18,36.754,35.055,37.117,35.321-8.661-14.159-12.371-43.165-12.371-43.165,11.292,27.192,20.393,58.4,20.393,58.4l.794-12.013Z" transform="translate(-1000.644 -688.533)" fill="#ff0b6f"/>
  <path id="Path_101" data-name="Path 101" d="M1892.921,1525.923s-17.943,5.446-22.274,13.513c0,0-13.76-11.569-31.223-23.423h0c-17.511-11.883-38.75-24.051-53.589-25.13,0,0,34.083-30.964,51.405-30.794,17.086.17,41.388,38.207,42.06,39.26-.454-.972-15.083-32.151-30.632-42.208a68.04,68.04,0,0,1,23.951,14.839C1883.669,1482.458,1894.126,1499.456,1892.921,1525.923Z" transform="translate(-1269.488 -961.438)" fill="#085182"/>
  <path id="Path_102" data-name="Path 102" d="M1442.639,1653.054s78.442-62.112,111.005-70.231l53.2,47.168s-13.975,41.912-33.276,46.245-112.6,19.669-112.6,19.669l-15.708-8.169,63.846-24.124-63.365,17.421v-11.8s39.855-23.194,38-22.323S1436.194,1668.23,1442.639,1653.054Z" transform="translate(-1052.713 -1040.68)" fill="#085182"/>
  <path id="Path_103" data-name="Path 103" d="M1879.309,1499.37l0,0c-.333-.336-21.764-21.841-36.5-29.235-14.847-7.453-33.407,18.25-33.407,18.25l30.022,27.631c-17.511-11.883-38.75-24.051-53.589-25.13,0,0,34.083-30.964,51.405-30.794,17.086.17,41.388,38.207,42.06,39.26-.454-.972-15.083-32.151-30.632-42.208a68.04,68.04,0,0,1,23.951,14.839A94.6,94.6,0,0,1,1879.309,1499.37Z" transform="translate(-1269.488 -961.438)" fill="#1b75bc"/>
  <path id="Path_104" data-name="Path 104" d="M1485.815,1605.706s54.766-27.988,67.77-14.544-6.991,55.6-29.166,61.745-73.647,15.581-73.647,15.581l17.731,24.13,147.583-35.63,21.318-38.52-81.8-66.173Z" transform="translate(-1058.233 -1021.433)" opacity="0.38"/>
  <g id="Group_15" data-name="Group 15" transform="translate(93.479 715.568)">
    <path id="Path_105" data-name="Path 105" d="M919.505,2052.171H641.416l41.813,131.267,236.276,29.7,236.276-29.7,41.813-131.267Z" transform="translate(-641.416 -2052.171)" fill="url(#linear-gradient-2)"/>
    <path id="Path_106" data-name="Path 106" d="M728.947,2195.172l-32.809-103h515.738l-32.808,103-225.06,28.289Z" transform="translate(-675.918 -2077.391)" fill="#ff0b6f"/>
    <path id="Path_107" data-name="Path 107" d="M696.138,2092.172l32.809,103,225.061,28.289,225.06-28.289,32.808-103-486.631.3,445.981,20.03-25.418,59.356L955.66,2197.839l-217.39-23.511Z" transform="translate(-675.918 -2077.391)" fill="#cc005d"/>
  </g>
  <g id="Group_16" data-name="Group 16" transform="translate(397.749 641.935)">
    <path id="Path_108" data-name="Path 108" d="M1687.277,1866.549s-16.589-39.13-212.008,15.091l-10.4,59.269s152.222,22.075,217.412,2.075S1716.769,1878.956,1687.277,1866.549Z" transform="translate(-1464.874 -1852.894)"/>
    <path id="Path_109" data-name="Path 109" d="M1492.5,1943.37s7.627,1.2,19.942,2.771q2.971.382,6.3.787c3.5.425,7.268.868,11.266,1.311,6.274.7,13.1,1.408,20.3,2.069,41.007,3.758,93.95,6.034,124.249-2.812,54.454-15.9,42.655-33.34,42.655-33.34l-130.1,4.467-2.476-9.9,131.99-6.116s3.2-4.031-5.406-11.074c-5.188-4.253-14.666-9.6-31.714-15.811-18.231-6.644-50.337-3.6-82.218,2.413-9.7,1.832-19.38,3.938-28.644,6.13q-5.537,1.313-10.845,2.649-5.67,1.43-10.985,2.845c-25.426,6.751-43.845,12.848-43.845,12.848l-1.751,6.814Z" transform="translate(-1482.292 -1864.923)" fill="#085182"/>
    <path id="Path_110" data-name="Path 110" d="M1516.089,1909.425c86.818-23.153,183.465-19.469,210-17.888-5.188-4.253-14.666-9.6-31.714-15.811-45.345-16.528-176.537,26.885-176.537,26.885Z" transform="translate(-1497.165 -1864.923)" fill="#1b75bc"/>
    <path id="Path_111" data-name="Path 111" d="M1594,1958.763c6.274.7,13.1,1.408,20.3,2.069l46.982-72.171c-9.7,1.832-19.38,3.938-28.644,6.13Z" transform="translate(-1546.287 -1875.445)" fill="#fff"/>
    <path id="Path_112" data-name="Path 112" d="M1546.469,1971.645q2.971.382,6.3.787l39.06-60.011q-5.67,1.43-10.985,2.845Z" transform="translate(-1516.319 -1890.426)" fill="#fff"/>
    <path id="Path_113" data-name="Path 113" d="M1941.292,1891.278s-26.811-11.73-53.208-8.779l4.537-3.237S1916.543,1875.585,1941.292,1891.278Z" transform="translate(-1731.706 -1869.283)" fill="#fff"/>
    <path id="Path_114" data-name="Path 114" d="M1830.648,1878.887l-5.775,3.611L1800.259,1884A97.413,97.413,0,0,1,1830.648,1878.887Z" transform="translate(-1676.333 -1869.282)" fill="#fff"/>
  </g>
  <g id="Group_28" data-name="Group 28" transform="translate(303.606 643.212)">
    <g id="Group_17" data-name="Group 17" transform="translate(44.614 2.68)">
      <path id="Path_115" data-name="Path 115" d="M1392.881,1888.9,1338.4,1863.6l-7.57,69.634s23.966,16.659,51.653,14.929Z" transform="translate(-1330.833 -1863.603)"/>
      <path id="Path_116" data-name="Path 116" d="M1352.438,1948.345s6.7,9.485,13.664-5.362c0,0-1.186,8.247,4.948,10.723s11.447-25.089,11.447-25.089l4.641,27.975h6.548l2.062-9.378,7.556-34.342,0,0c-.388-.244-25.307-15.863-45.087-18.763a.063.063,0,0,1,0,.018l-5.143,48.324Z" transform="translate(-1344.455 -1882.835)" fill="#085182"/>
      <path id="Path_117" data-name="Path 117" d="M1354.138,1942.448c2.89,6.562,10.922-11.067,10.922-11.067s3.3,7.065,7.061,8.787,9.578-23.1,9.578-23.1l15.12,30.145.362.717,7.194-35.058,0,0c-.388-.244-25.307-15.863-45.087-18.763a.065.065,0,0,1,0,.018Z" transform="translate(-1345.527 -1882.835)" fill="#1b75bc"/>
      <path id="Path_118" data-name="Path 118" d="M1375.968,1903.84s23.645,3.9,36.483,15.032c0,0-20.962-10.033-36.572-9.762Z" transform="translate(-1359.234 -1888.972)" fill="#fff"/>
    </g>
    <g id="Group_27" data-name="Group 27">
      <path id="Path_119" data-name="Path 119" d="M1218.323,1886.971s7.838,5.248-.257,13.841c0,0,6.574,10.921.786,18.574,0,0,8.92,8.486,5.124,16.731,0,0,31.3-3.077,30.767-5.459s0-43.526,0-43.526Z" transform="translate(-1215.12 -1875.657)"/>
      <g id="Group_26" data-name="Group 26">
        <g id="Group_19" data-name="Group 19" transform="translate(1.956)">
          <g id="Group_18" data-name="Group 18">
            <path id="Path_120" data-name="Path 120" d="M1265.615,1859.031s-40.163-7.978-49.238,3.6,47.222,14.946,47.222,14.946Z" transform="translate(-1215.387 -1856.351)"/>
            <path id="Path_121" data-name="Path 121" d="M1241.928,1874.65c5.361,2.616,34.852,5.1,34.852,5.1l1.6-12.035v-.007l.048-.351a.479.479,0,0,0,.007-.07c-10.93-3.714-34.441,0-34.441,0C1246.392,1870.878,1241.928,1874.65,1241.928,1874.65Z" transform="translate(-1232.121 -1862.207)" fill="#1b75bc"/>
            <path id="Path_122" data-name="Path 122" d="M1241.928,1877.467c5.361,2.616,34.852,5.1,34.852,5.1l1.6-12.035c-.251,1.456-1.6,6.137-8.587,5.964-8.269-.207-21.468-1.648-21.468-1.648s.617-4.745-4.331-4.745C1246.392,1873.694,1241.928,1877.467,1241.928,1877.467Z" transform="translate(-1232.121 -1865.023)" fill="#085182"/>
            <path id="Path_123" data-name="Path 123" d="M1289.558,1870.231h-24.19s5.224-1.951,19.592-1.814Z" transform="translate(-1246.9 -1863.954)" fill="#fff"/>
          </g>
          <path id="Path_124" data-name="Path 124" d="M1227.672,1870.525s1.306,3.862-.962,5.948-6.187-1.008-5.843-2.658S1221.9,1869.573,1227.672,1870.525Z" transform="translate(-1218.828 -1865.159)" fill="#085182"/>
        </g>
        <g id="Group_21" data-name="Group 21" transform="translate(1.956 18.878)">
          <g id="Group_20" data-name="Group 20">
            <path id="Path_125" data-name="Path 125" d="M1265.615,1910.121s-40.163-7.978-49.238,3.6,47.222,14.946,47.222,14.946Z" transform="translate(-1215.387 -1907.442)"/>
            <path id="Path_126" data-name="Path 126" d="M1241.928,1925.741c5.361,2.616,34.852,5.1,34.852,5.1l1.6-12.035v-.007l.048-.351a.478.478,0,0,0,.007-.07c-10.93-3.714-34.441,0-34.441,0C1246.392,1921.969,1241.928,1925.741,1241.928,1925.741Z" transform="translate(-1232.121 -1913.298)" fill="#1b75bc"/>
            <path id="Path_127" data-name="Path 127" d="M1241.928,1928.558c5.361,2.616,34.852,5.1,34.852,5.1l1.6-12.035c-.251,1.456-1.6,6.137-8.587,5.964-8.269-.207-21.468-1.648-21.468-1.648s.617-4.744-4.331-4.744C1246.392,1924.785,1241.928,1928.558,1241.928,1928.558Z" transform="translate(-1232.121 -1916.114)" fill="#085182"/>
            <path id="Path_128" data-name="Path 128" d="M1289.558,1921.322h-24.19s5.224-1.951,19.592-1.814Z" transform="translate(-1246.9 -1915.045)" fill="#fff"/>
          </g>
          <path id="Path_129" data-name="Path 129" d="M1227.672,1921.617s1.306,3.862-.962,5.948-6.187-1.008-5.843-2.658S1221.9,1920.664,1227.672,1921.617Z" transform="translate(-1218.828 -1916.25)" fill="#085182"/>
        </g>
        <g id="Group_23" data-name="Group 23" transform="translate(0 37.917)">
          <g id="Group_22" data-name="Group 22">
            <path id="Path_130" data-name="Path 130" d="M1260.32,1961.648s-40.163-7.978-49.238,3.6,47.223,14.945,47.223,14.945Z" transform="translate(-1210.092 -1958.968)"/>
            <path id="Path_131" data-name="Path 131" d="M1236.634,1977.267c5.361,2.616,34.851,5.1,34.851,5.1l1.6-12.035v-.007l.048-.351a.472.472,0,0,0,.007-.07c-10.93-3.714-34.441,0-34.441,0C1241.1,1973.495,1236.634,1977.267,1236.634,1977.267Z" transform="translate(-1226.827 -1964.824)" fill="#1b75bc"/>
            <path id="Path_132" data-name="Path 132" d="M1236.634,1980.083c5.361,2.616,34.851,5.1,34.851,5.1l1.6-12.035c-.251,1.456-1.6,6.137-8.587,5.964-8.269-.207-21.468-1.648-21.468-1.648s.617-4.744-4.331-4.744C1241.1,1976.311,1236.634,1980.083,1236.634,1980.083Z" transform="translate(-1226.827 -1967.641)" fill="#085182"/>
            <path id="Path_133" data-name="Path 133" d="M1284.263,1972.849h-24.189s5.224-1.951,19.592-1.814Z" transform="translate(-1241.605 -1966.572)" fill="#fff"/>
          </g>
          <path id="Path_134" data-name="Path 134" d="M1222.378,1973.143s1.306,3.862-.962,5.948-6.187-1.008-5.843-2.658S1216.6,1972.19,1222.378,1973.143Z" transform="translate(-1213.534 -1967.776)" fill="#085182"/>
        </g>
        <g id="Group_25" data-name="Group 25" transform="translate(8.068 55.463)">
          <g id="Group_24" data-name="Group 24">
            <path id="Path_135" data-name="Path 135" d="M1271.909,2008.586s-31.97-6.351-39.194,2.863,37.589,11.9,37.589,11.9Z" transform="translate(-1231.927 -2006.453)"/>
            <path id="Path_136" data-name="Path 136" d="M1253.054,2021.019c4.268,2.083,27.741,4.062,27.741,4.062l1.271-9.58v-.006l.038-.279a.37.37,0,0,0,.006-.056c-8.7-2.956-27.415,0-27.415,0C1256.607,2018.016,1253.054,2021.019,1253.054,2021.019Z" transform="translate(-1245.248 -2011.114)" fill="#1b75bc"/>
            <path id="Path_137" data-name="Path 137" d="M1253.054,2023.261c4.268,2.083,27.741,4.062,27.741,4.062l1.271-9.58c-.2,1.159-1.276,4.886-6.835,4.747-6.582-.165-17.088-1.312-17.088-1.312a3.244,3.244,0,0,0-3.447-3.777C1256.607,2020.258,1253.054,2023.261,1253.054,2023.261Z" transform="translate(-1245.248 -2013.356)" fill="#085182"/>
            <path id="Path_138" data-name="Path 138" d="M1290.967,2017.5h-19.255s4.159-1.553,15.6-1.444Z" transform="translate(-1257.011 -2012.506)" fill="#fff"/>
          </g>
          <path id="Path_139" data-name="Path 139" d="M1241.707,2017.736s1.039,3.074-.766,4.734-4.925-.8-4.651-2.116S1237.111,2016.978,1241.707,2017.736Z" transform="translate(-1234.667 -2013.464)" fill="#085182"/>
        </g>
      </g>
    </g>
  </g>
</svg>
