<svg xmlns="http://www.w3.org/2000/svg" width="100" height="93.263" viewBox="0 0 100 93.263">
  <g id="newspaper_1_" data-name="newspaper (1)" transform="translate(0 -17.247)">
    <g id="Group_2" data-name="Group 2" transform="translate(39.762 42.082)">
      <g id="Group_1" data-name="Group 1">
        <path id="Path_1" data-name="Path 1" d="M232.38,144.4H207.545a3.963,3.963,0,0,0,0,7.926H232.38a3.963,3.963,0,1,0,0-7.926Z" transform="translate(-203.582 -144.402)" fill="#fff"/>
      </g>
    </g>
    <g id="Group_4" data-name="Group 4" transform="translate(39.762 61.236)">
      <g id="Group_3" data-name="Group 3">
        <path id="Path_2" data-name="Path 2" d="M241.891,242.473H207.545a3.963,3.963,0,0,0,0,7.926h34.346a3.963,3.963,0,0,0,0-7.926Z" transform="translate(-203.582 -242.473)" fill="#fff"/>
      </g>
    </g>
    <g id="Group_6" data-name="Group 6" transform="translate(0 17.247)">
      <g id="Group_5" data-name="Group 5">
        <path id="Path_3" data-name="Path 3" d="M96.037,17.247H25.892a3.963,3.963,0,0,0-3.963,3.963V58.594h-7A14.945,14.945,0,0,0,0,73.522V95.583a14.932,14.932,0,0,0,16.913,14.8H82.3a17.722,17.722,0,0,0,17.7-17.7V21.21A3.963,3.963,0,0,0,96.037,17.247ZM21.929,95.583a7.013,7.013,0,0,1-5.646,6.869H14.928v.132a7.009,7.009,0,0,1-7-7V73.522a7.01,7.01,0,0,1,7-7h7V95.583Zm70.145-2.906a9.906,9.906,0,0,1-9.775,9.775H28.178a14.829,14.829,0,0,0,1.676-6.869V25.173H92.074v67.5Z" transform="translate(0 -17.247)" fill="#fff"/>
      </g>
    </g>
    <g id="Group_8" data-name="Group 8" transform="translate(39.762 79.203)">
      <g id="Group_7" data-name="Group 7">
        <path id="Path_4" data-name="Path 4" d="M232.38,334.464H207.545a3.963,3.963,0,0,0,0,7.926H232.38a3.963,3.963,0,1,0,0-7.926Z" transform="translate(-203.582 -334.464)" fill="#fff"/>
      </g>
    </g>
  </g>
</svg>
