<svg xmlns="http://www.w3.org/2000/svg" width="30" height="30" viewBox="0 0 30 30">
  <g id="phone-ringing" transform="translate(0)">
    <path id="Path_12419" data-name="Path 12419" d="M21.561,30a8.358,8.358,0,0,1-2.868-.512A30.578,30.578,0,0,1,7.59,22.41a30.576,30.576,0,0,1-7.078-11.1A8.3,8.3,0,0,1,.089,7.228,8.509,8.509,0,0,1,4.463,1a8.354,8.354,0,0,1,4-1,.938.938,0,0,1,.917.741l1.471,6.867a.938.938,0,0,1-.254.859L8.082,10.982A24.677,24.677,0,0,0,19.019,21.918L21.533,19.4a.938.938,0,0,1,.859-.254l6.867,1.471a.937.937,0,0,1,.741.917,8.353,8.353,0,0,1-1,4,8.509,8.509,0,0,1-6.229,4.373A8.339,8.339,0,0,1,21.561,30ZM7.713,1.916a6.569,6.569,0,0,0-5.438,8.751A28.435,28.435,0,0,0,19.334,27.726a6.569,6.569,0,0,0,8.751-5.438L22.5,21.09l-2.626,2.626a.937.937,0,0,1-1.062.186A26.545,26.545,0,0,1,6.1,11.189a.937.937,0,0,1,.186-1.062L8.91,7.5Z" transform="translate(0 0)" fill="#ddd"/>
    <path id="Path_12420" data-name="Path 12420" d="M255.019,15.937a.937.937,0,0,1-.937-.937A13.139,13.139,0,0,0,240.957,1.875a.937.937,0,0,1,0-1.875,15,15,0,0,1,15,15A.937.937,0,0,1,255.019,15.937Z" transform="translate(-225.956)" fill="#ddd"/>
    <path id="Path_12421" data-name="Path 12421" d="M251.27,76.187a.938.938,0,0,1-.937-.937,9.385,9.385,0,0,0-9.375-9.375.937.937,0,0,1,0-1.875,11.262,11.262,0,0,1,11.25,11.25A.938.938,0,0,1,251.27,76.187Z" transform="translate(-225.956 -60.25)" fill="#ddd"/>
    <path id="Path_12422" data-name="Path 12422" d="M247.52,136.437a.938.938,0,0,1-.937-.937,5.631,5.631,0,0,0-5.625-5.625.937.937,0,0,1,0-1.875,7.508,7.508,0,0,1,7.5,7.5A.937.937,0,0,1,247.52,136.437Z" transform="translate(-225.956 -120.5)" fill="#ddd"/>
  </g>
</svg>
