<svg xmlns="http://www.w3.org/2000/svg" width="21.094" height="30" viewBox="0 0 21.094 30">
  <g id="placeholder" transform="translate(-76)">
    <g id="Group_280" data-name="Group 280" transform="translate(76)">
      <g id="Group_279" data-name="Group 279">
        <path id="Path_12424" data-name="Path 12424" d="M86.547,0a10.549,10.549,0,0,0-8.973,16.093l8.372,13.492a.879.879,0,0,0,.747.415H86.7a.879.879,0,0,0,.747-.427L95.606,15.95A10.549,10.549,0,0,0,86.547,0ZM94.1,15.048,86.68,27.433,79.068,15.167A8.795,8.795,0,1,1,94.1,15.048Z" transform="translate(-76)" fill="#ddd"/>
      </g>
    </g>
    <g id="Group_282" data-name="Group 282" transform="translate(81.273 5.273)">
      <g id="Group_281" data-name="Group 281">
        <path id="Path_12425" data-name="Path 12425" d="M171.273,90a5.273,5.273,0,1,0,5.273,5.273A5.279,5.279,0,0,0,171.273,90Zm0,8.8a3.527,3.527,0,1,1,3.521-3.527A3.53,3.53,0,0,1,171.273,98.8Z" transform="translate(-166 -90)" fill="#ddd"/>
      </g>
    </g>
  </g>
</svg>
