<svg xmlns="http://www.w3.org/2000/svg" width="101.12" height="96.92" viewBox="0 0 101.12 96.92">
  <path id="star" d="M22.383,96.325a5.323,5.323,0,0,1-5.179-6.5l6.433-28.339L1.819,42.352a5.319,5.319,0,0,1,3.013-9.3L33.7,30.431,45.113,3.722a5.315,5.315,0,0,1,9.775,0L66.3,30.431l28.863,2.621a5.321,5.321,0,0,1,3.021,9.3L76.367,61.482,82.8,89.82a5.313,5.313,0,0,1-7.908,5.742L50,80.686,25.108,95.57a5.327,5.327,0,0,1-2.725.755ZM50,74.278a5.328,5.328,0,0,1,2.725.754L76.218,89.083,70.146,62.336a5.315,5.315,0,0,1,1.684-5.179l20.6-18.067L65.175,36.615a5.309,5.309,0,0,1-4.417-3.221L50,8.188,39.229,33.4a5.294,5.294,0,0,1-4.4,3.209L7.566,39.081l20.6,18.067a5.3,5.3,0,0,1,1.684,5.184L23.783,89.078,47.275,75.032A5.326,5.326,0,0,1,50,74.278ZM33.479,30.947a.012.012,0,0,1,0,.008Zm33.034-.012,0,.008S66.517,30.939,66.513,30.935Zm0,0" transform="translate(0.559 0.008)" fill="#fff" stroke="#fff" stroke-width="1"/>
</svg>
